<?xml version="1.0" standalone="no"?>
<!DOCTYPE svg PUBLIC "-//W3C//DTD SVG 20010904//EN"
 "http://www.w3.org/TR/2001/REC-SVG-20010904/DTD/svg10.dtd">
<svg version="1.0" xmlns="http://www.w3.org/2000/svg"
 width="626.000000pt" height="626.000000pt" viewBox="0 0 626.000000 626.000000"
 preserveAspectRatio="xMidYMid meet">
<metadata>
Created by potrace 1.14, written by Peter Selinger 2001-2017
</metadata>
<g transform="translate(0.000000,626.000000) scale(0.100000,-0.100000)"
fill="#000000" stroke="none">
<path d="M750 6233 c-6 -16 -13 -35 -17 -43 -3 -8 -7 -19 -9 -25 -2 -5 -26
-66 -54 -135 -29 -69 -55 -136 -60 -150 -11 -31 -37 -98 -85 -215 -20 -49 -38
-94 -39 -100 -1 -5 -8 -21 -13 -35 -20 -46 -115 -285 -118 -295 -1 -5 -7 -21
-12 -35 -6 -14 -25 -61 -42 -105 -17 -44 -36 -89 -40 -100 -21 -45 -190 -481
-193 -495 -2 -8 7 -19 20 -25 12 -5 22 -13 22 -17 0 -5 6 -8 13 -8 18 0 67
-24 67 -32 0 -5 5 -8 12 -8 11 0 108 -48 226 -111 28 -16 52 -25 52 -21 0 4 4
2 8 -4 4 -6 84 -49 177 -96 94 -47 237 -120 320 -162 82 -42 153 -75 159 -73
5 2 10 10 12 18 1 7 21 57 44 109 23 52 47 109 55 125 21 49 28 70 27 78 -1 4
2 7 8 7 5 0 10 7 10 16 0 8 4 13 8 10 5 -3 19 -7 33 -10 64 -13 74 -16 85 -28
10 -12 57 -141 69 -192 3 -11 20 -67 39 -125 108 -329 190 -589 193 -608 3
-19 -1 -22 -19 -20 -23 2 -23 1 -22 -108 1 -60 5 -218 8 -350 3 -132 8 -323
11 -425 3 -102 7 -282 10 -401 2 -119 5 -221 6 -225 1 -5 1 -19 0 -30 l-1 -22
-639 2 -638 1 0 -882 0 -883 2883 0 2884 0 0 880 c0 831 -1 880 -17 881 -10 0
-289 1 -620 1 l-603 0 -1 21 c0 12 0 363 0 779 -1 567 -4 757 -12 760 -7 2
-118 3 -247 3 l-235 -1 -27 43 c-16 24 -28 47 -28 53 0 5 -4 10 -9 10 -5 0
-14 12 -20 28 -10 27 -46 92 -93 168 -13 21 -29 50 -36 64 -6 14 -16 32 -22
40 -15 23 -270 472 -270 476 0 2 -13 25 -29 51 -60 101 -109 188 -109 197 0 5
-4 12 -9 15 -10 7 -51 77 -65 112 -11 24 -144 109 -172 109 -7 0 -16 4 -22 9
-9 10 -136 76 -349 184 -66 34 -122 64 -125 68 -3 3 -22 12 -42 20 -21 7 -38
17 -38 23 0 5 -3 6 -7 3 -3 -4 -11 -3 -17 2 -6 5 -96 53 -201 106 -203 104
-394 203 -410 214 -5 3 -12 6 -15 6 -3 1 -45 22 -95 48 -49 25 -115 59 -145
74 -30 15 -56 31 -58 36 -2 4 -9 7 -15 7 -22 0 -187 91 -187 103 0 7 7 24 14
39 8 15 12 30 8 32 -19 11 -109 59 -207 111 -60 32 -139 74 -175 93 -36 19
-103 55 -150 80 -47 24 -91 49 -97 54 -7 6 -13 7 -13 3 0 -4 -7 -2 -15 5 -8 7
-38 24 -67 39 -29 16 -87 46 -128 68 -41 22 -119 64 -173 92 l-97 51 -10 -27z
m2553 -2531 c7 -6 46 -56 87 -112 41 -56 101 -136 133 -178 31 -42 57 -79 57
-82 0 -3 -89 -5 -199 -5 l-198 0 -64 50 c-35 27 -70 55 -77 62 -7 7 -18 13
-24 13 -13 0 -5 105 13 165 16 55 34 78 72 91 38 13 183 10 200 -4z"/>
</g>
</svg>
